# xmcd
#
# Track frame offsets:
#	150
#	13360
#	25660
#	39229
#	53404
#	68257
#	81229
#	104397
#	136835
#	152357
#	168585
#	187084
#	203037
#	228801
#	264881
#
# Disc length: 3762 seconds
#
# Revision: 1
# Processed by: cddbd v1.4PL0 Copyright (c) Steve Scherf et al.
# Submitted via: audiograbber 1.80
#
DISCID=ae0eb00f
DTITLE=Various Artist - Greatest Hits Of Soul And R&B Disk 2
DYEAR=1900
DGENRE=
TTITLE0=Percy Sladge - When A Man Loves A Woman
TTITLE1=Byron Lee and Mighty Sparrow - Only A Fool
TTITLE2=King Floyd - Groove Me
TTITLE3=George McCrae - I Can't Leave You Alone
TTITLE4=KC and The Sunshine Band - Queen Of Clubs
TTITLE5=B.T. Express - Do It
TTITLE6=Donald Byrd - Change (Makes You Wanna Hustle)
TTITLE7=The Temptations - Papa Was A Rolling Stone
TTITLE8=William DeVaughn - Be Thankful For What You've Got
TTITLE9=Dorothy Moore - Misty Blue
TTITLE10=Bobby Bland - Members Only
TTITLE11=Ruby Winters - I Will
TTITLE12=Timmy Thomas - What Can I Tell Her
TTITLE13=Charles Brimmer - God Bless Our Love
TTITLE14=Percy Sledge - Try A Little Tenderness
EXTD=
EXTT0=
EXTT1=
EXTT2=
EXTT3=
EXTT4=
EXTT5=
EXTT6=
EXTT7=
EXTT8=
EXTT9=
EXTT10=
EXTT11=
EXTT12=
EXTT13=
EXTT14=
PLAYORDER=
